<svg width="39" height="39" viewBox="0 0 39 39" fill="none" xmlns="http://www.w3.org/2000/svg" class="w-10 h-10 text-complete">
    <circle cx="19.5" cy="19.5" r="19.5" fill="#2C3A45"/>
    <path d="M23.5143 9.1761H15.4848C13.8116 9.1761 12.207 9.84078 11.0238 11.0239C9.8407 12.207 9.17603 13.8117 9.17603 15.4849V23.5143C9.17603 25.1875 9.8407 26.7922 11.0238 27.9754C12.207 29.1585 13.8116 29.8232 15.4848 29.8232H23.5143C25.1875 29.8232 26.7921 29.1585 27.9753 27.9754C29.1584 26.7922 29.8231 25.1875 29.8231 23.5143V15.4849C29.8231 13.8117 29.1584 12.207 27.9753 11.0239C26.7921 9.84078 25.1875 9.1761 23.5143 9.1761ZM28.1025 23.5143C28.1011 24.7308 27.6173 25.897 26.7571 26.7572C25.897 27.6174 24.7307 28.1012 23.5143 28.1026H15.4848C14.2684 28.1012 13.1022 27.6174 12.242 26.7572C11.3818 25.897 10.898 24.7308 10.8966 23.5143V15.4849C10.898 14.2685 11.3818 13.1022 12.242 12.2421C13.1022 11.3819 14.2684 10.8981 15.4848 10.8967H23.5143C24.7307 10.8981 25.897 11.3819 26.7571 12.2421C27.6173 13.1022 28.1011 14.2685 28.1025 15.4849V23.5143Z" fill="white"/>
    <path d="M19.4997 14.3379C18.4788 14.3379 17.4808 14.6406 16.6319 15.2078C15.7831 15.775 15.1215 16.5811 14.7308 17.5243C14.3401 18.4675 14.2379 19.5054 14.4371 20.5067C14.6362 21.508 15.1279 22.4277 15.8497 23.1496C16.5716 23.8715 17.4914 24.3631 18.4926 24.5622C19.4939 24.7614 20.5318 24.6592 21.475 24.2685C22.4182 23.8778 23.2243 23.2162 23.7915 22.3674C24.3587 21.5185 24.6614 20.5206 24.6614 19.4997C24.6614 18.1307 24.1176 16.8178 23.1496 15.8497C22.1816 14.8817 20.8686 14.3379 19.4997 14.3379ZM19.4997 22.9408C18.8191 22.9408 18.1537 22.739 17.5878 22.3609C17.0219 21.9828 16.5809 21.4453 16.3204 20.8165C16.06 20.1877 15.9918 19.4958 16.1246 18.8283C16.2574 18.1608 16.5851 17.5476 17.0664 17.0664C17.5476 16.5851 18.1608 16.2574 18.8283 16.1246C19.4958 15.9918 20.1877 16.06 20.8165 16.3204C21.4453 16.5809 21.9828 17.0219 22.3609 17.5878C22.739 18.1537 22.9408 18.8191 22.9408 19.4997C22.9398 20.412 22.5769 21.2867 21.9318 21.9318C21.2867 22.5769 20.412 22.9398 19.4997 22.9408Z" fill="white"/>
    <path d="M24.8902 15.2557C25.5237 15.2557 26.0373 14.7421 26.0373 14.1086C26.0373 13.4751 25.5237 12.9615 24.8902 12.9615C24.2567 12.9615 23.7432 13.4751 23.7432 14.1086C23.7432 14.7421 24.2567 15.2557 24.8902 15.2557Z" fill="white"/>
</svg>