<svg width="183" height="32" viewBox="0 0 183 32" fill="none" xmlns="http://www.w3.org/2000/svg">
          <path d="M38.5156 32H69.881L69.7798 23.1172L48.9358 25.4008L48.9683 0H38.4072L38.5156 32Z" fill="white"/>
          <path d="M159.681 32H170.246L170.163 7.90515H183L182.975 0H146.786L146.811 7.90515H159.602L159.681 32Z" fill="white"/>
          <path d="M137.706 0H125.88L109.914 32H120.844L123.236 26.8381L139.339 24.5873L142.819 32H153.886L137.706 0ZM126.596 19.5458L131.752 8.32832L136.348 18.1778L126.596 19.5458Z" fill="white"/>
          <path d="M108.202 24.5144H83.8999L83.8854 21.0196L104.386 18.156L104.364 11.3342L83.8637 14.1979L83.842 7.48564H108.202V0H73.4833L73.5375 15.6425L69.6678 16.1824L69.6931 23.0041L73.5592 22.4642L73.5917 32H108.202V24.5144Z" fill="white"/>
          <path d="M10.2865 21.0196L30.6897 18.1669V11.3415L10.2612 14.1979L10.2395 7.48564H34.7689V0H0V32H34.7689V24.5144H10.2973L10.2865 21.0196Z" fill="white"/>
        </svg>