<svg viewBox="0 0 24 24" fill="none" xmlns="http://www.w3.org/2000/svg" class="w-6 h-6">
    <circle cx="12" cy="12" r="12" fill="white"/>
    <path d="M14.4703 5.64684H9.52908C8.49942 5.64684 7.51193 6.05587 6.78384 6.78395C6.05576 7.51203 5.64673 8.49952 5.64673 9.52919V14.4704C5.64673 15.5 6.05576 16.4875 6.78384 17.2156C7.51193 17.9437 8.49942 18.3527 9.52908 18.3527H14.4703C15.4999 18.3527 16.4874 17.9437 17.2155 17.2156C17.9436 16.4875 18.3526 15.5 18.3526 14.4704V9.52919C18.3526 8.49952 17.9436 7.51203 17.2155 6.78395C16.4874 6.05587 15.4999 5.64684 14.4703 5.64684ZM17.2938 14.4704C17.2929 15.219 16.9952 15.9366 16.4659 16.466C15.9365 16.9953 15.2188 17.293 14.4703 17.2939H9.52908C8.7805 17.293 8.06281 16.9953 7.53348 16.466C7.00415 15.9366 6.7064 15.219 6.70555 14.4704V9.52919C6.70639 8.7806 7.00414 8.06291 7.53347 7.53358C8.06281 7.00425 8.78049 6.7065 9.52908 6.70566H14.4703C15.2188 6.7065 15.9365 7.00425 16.4659 7.53358C16.9952 8.06291 17.2929 8.7806 17.2938 9.52919V14.4704Z" fill="#241F21"/>
    <path d="M12 8.82332C11.3717 8.82332 10.7576 9.00962 10.2352 9.35865C9.71284 9.70769 9.3057 10.2038 9.06528 10.7842C8.82486 11.3646 8.76196 12.0033 8.88452 12.6195C9.00709 13.2357 9.30962 13.8017 9.75386 14.2459C10.1981 14.6901 10.7641 14.9927 11.3803 15.1152C11.9964 15.2378 12.6351 15.1749 13.2155 14.9345C13.796 14.694 14.2921 14.2869 14.6411 13.7645C14.9901 13.2422 15.1764 12.628 15.1764 11.9998C15.1764 11.1573 14.8418 10.3494 14.2461 9.75369C13.6504 9.15798 12.8424 8.82332 12 8.82332ZM12 14.1174C11.5811 14.1174 11.1717 13.9932 10.8235 13.7605C10.4752 13.5279 10.2038 13.1971 10.0435 12.8102C9.88323 12.4232 9.84129 11.9974 9.923 11.5867C10.0047 11.1759 10.2064 10.7985 10.5026 10.5024C10.7987 10.2062 11.176 10.0045 11.5868 9.92283C11.9976 9.84112 12.4234 9.88306 12.8103 10.0433C13.1973 10.2036 13.528 10.475 13.7607 10.8233C13.9934 11.1715 14.1176 11.581 14.1176 11.9998C14.117 12.5612 13.8937 13.0995 13.4967 13.4965C13.0997 13.8935 12.5614 14.1168 12 14.1174Z" fill="#241F21"/>
    <path d="M15.317 9.3881C15.7068 9.3881 16.0228 9.07207 16.0228 8.68222C16.0228 8.29237 15.7068 7.97633 15.317 7.97633C14.9271 7.97633 14.6111 8.29237 14.6111 8.68222C14.6111 9.07207 14.9271 9.3881 15.317 9.3881Z" fill="#241F21"/>
</svg>