<svg width="25" height="22" viewBox="0 0 25 22" fill="none" xmlns="http://www.w3.org/2000/svg" class="mobile-header__icon mobile-header__icon--empty inline-block">
    <path d="M10.269 22C11.1158 22 11.8023 21.3195 11.8023 20.48C11.8023 19.6405 11.1158 18.96 10.269 18.96C9.42215 18.96 8.73566 19.6405 8.73566 20.48C8.73566 21.3195 9.42215 22 10.269 22Z" class="header-svg-path" fill="currentColor"/>
    <path d="M17.9356 22C18.7825 22 19.4689 21.3195 19.4689 20.48C19.4689 19.6405 18.7825 18.96 17.9356 18.96C17.0888 18.96 16.4023 19.6405 16.4023 20.48C16.4023 21.3195 17.0888 22 17.9356 22Z" class="header-svg-path" fill="currentColor"/>
    <path d="M22.7995 7.75L23.7577 8.03621C23.8481 7.73352 23.7902 7.40592 23.6015 7.15259C23.4127 6.89926 23.1154 6.75 22.7995 6.75V7.75ZM20.2121 16.4121L21.1703 16.6983L20.2121 16.4121ZM18.7043 17.5V18.5V17.5ZM9.3087 17.5L9.3087 18.5H9.3087V17.5ZM7.80085 16.4121L6.84268 16.6983L7.80085 16.4121ZM4.25583 4.54396L5.214 4.25775V4.25775L4.25583 4.54396ZM3.50191 4L3.50191 3H3.50191V4ZM1.85309 3C1.3008 3 0.853088 3.44772 0.853088 4C0.853088 4.55228 1.3008 5 1.85309 5V3ZM5.21348 8.75H22.7995V6.75H5.21348V8.75ZM21.8413 7.46379L19.254 16.1259L21.1703 16.6983L23.7577 8.03621L21.8413 7.46379ZM19.254 16.1259C19.2252 16.2223 19.1617 16.3157 19.0635 16.3866L20.2338 18.0085C20.6797 17.6867 21.0119 17.2287 21.1703 16.6983L19.254 16.1259ZM19.0635 16.3866C18.9647 16.4579 18.8386 16.5 18.7043 16.5V18.5C19.2516 18.5 19.7885 18.3297 20.2338 18.0085L19.0635 16.3866ZM18.7043 16.5H9.3087V18.5H18.7043V16.5ZM9.3087 16.5C9.17441 16.5 9.04831 16.4579 8.94945 16.3866L7.77924 18.0085C8.2245 18.3297 8.76142 18.5 9.3087 18.5L9.3087 16.5ZM8.94945 16.3866C8.85125 16.3157 8.78782 16.2223 8.75902 16.1259L6.84268 16.6983C7.00113 17.2287 7.33331 17.6867 7.77924 18.0085L8.94945 16.3866ZM8.75902 16.1259L5.214 4.25775L3.29766 4.83017L6.84268 16.6983L8.75902 16.1259ZM5.214 4.25775C5.10236 3.88402 4.86908 3.56387 4.55919 3.34028L3.38897 4.96219C3.35114 4.9349 3.31568 4.89048 3.29766 4.83017L5.214 4.25775ZM4.55919 3.34028C4.24995 3.11717 3.87879 3 3.50191 3L3.50191 5C3.46581 5 3.42615 4.98901 3.38897 4.96219L4.55919 3.34028ZM3.50191 3H1.85309V5H3.50191V3Z" class="header-svg-path" fill="currentColor"/>
</svg>