<svg class="pointer-events-none" width="8" height="12" viewBox="0 0 8 12" fill="none" xmlns="http://www.w3.org/2000/svg">
              <path d="M1.74406 5.91278e-05C1.90411 -0.000376701 2.06225 0.0278826 2.20686 0.0827589C2.35147 0.137636 2.47887 0.217736 2.5797 0.317173L7.75421 5.45954C7.91178 5.6129 7.99792 5.80526 7.99792 6.00378C7.99792 6.2023 7.91178 6.39466 7.75421 6.54801L2.39757 11.6904C2.21573 11.8654 1.95442 11.9755 1.67113 11.9964C1.38784 12.0173 1.10578 11.9473 0.887 11.8018C0.668217 11.6563 0.530633 11.4473 0.504514 11.2206C0.478396 10.994 0.565882 10.7684 0.747727 10.5933L5.53656 5.99949L0.908427 1.40564C0.777422 1.27984 0.694204 1.12665 0.668622 0.96419C0.643039 0.801735 0.676161 0.636816 0.76407 0.488949C0.851978 0.341082 0.990994 0.216455 1.16467 0.129815C1.33834 0.0431738 1.5394 -0.00185394 1.74406 5.91278e-05Z" fill="#868684"/>
              <path d="M1.74406 5.91278e-05C1.90411 -0.000376701 2.06225 0.0278826 2.20686 0.0827589C2.35147 0.137636 2.47887 0.217736 2.5797 0.317173L7.75421 5.45954C7.91178 5.6129 7.99792 5.80526 7.99792 6.00378C7.99792 6.2023 7.91178 6.39466 7.75421 6.54801L2.39757 11.6904C2.21573 11.8654 1.95442 11.9755 1.67113 11.9964C1.38784 12.0173 1.10578 11.9473 0.887 11.8018C0.668217 11.6563 0.530633 11.4473 0.504514 11.2206C0.478396 10.994 0.565882 10.7684 0.747727 10.5933L5.53656 5.99949L0.908427 1.40564C0.777422 1.27984 0.694204 1.12665 0.668622 0.96419C0.643039 0.801735 0.676161 0.636816 0.76407 0.488949C0.851978 0.341082 0.990994 0.216455 1.16467 0.129815C1.33834 0.0431738 1.5394 -0.00185394 1.74406 5.91278e-05Z" fill="#241F21"/>
            </svg>