<svg viewBox="0 0 24 24" fill="none" xmlns="http://www.w3.org/2000/svg" class="w-6 h-6">
    <path d="M12 0C5.37257 0 0 5.37257 0 12C0 18.6274 5.37257 24 12 24C18.6274 24 24 18.6274 24 12C24 5.37257 18.6274 0 12 0Z" fill="white"/>
    <path d="M6.10042 16.667H8.69528V8.86094H6.10042V16.667Z" fill="#241F21"/>
    <path d="M5.94629 6.44611C5.94629 7.19565 6.51022 7.79565 7.38083 7.79565C8.25144 7.79565 8.86633 7.07693 8.86633 6.44611C8.84922 5.68021 8.30317 5.09767 7.41506 5.09767C6.52734 5.09767 5.94629 5.68021 5.94629 6.44611Z" fill="#241F21"/>
    <path d="M15.4588 16.6671H18.0536L18.0537 12.1907C18.0535 9.79296 16.7733 8.67744 15.0652 8.67744C13.6868 8.67744 13.0707 9.43625 12.7261 9.9673V8.86094H10.131C10.1656 9.59346 10.131 16.667 10.131 16.667H12.7262V12.3074C12.7262 12.0737 12.7437 11.8417 12.8122 11.6747C13.0002 11.208 13.4268 10.7255 14.144 10.7255C15.0831 10.7255 15.4588 11.4417 15.4588 12.4907V16.6671Z" fill="#241F21"/>
</svg>