<svg width="24" height="22" viewBox="0 0 24 22" fill="none" xmlns="http://www.w3.org/2000/svg" class="desktop-header__icon desktop-header__icon--full inline-block pointer-events-none hidden">
    <path d="M10.9043 22C11.7158 22 12.3737 21.3195 12.3737 20.48C12.3737 19.6405 11.7158 18.96 10.9043 18.96C10.0927 18.96 9.43481 19.6405 9.43481 20.48C9.43481 21.3195 10.0927 22 10.9043 22Z" class="header-svg-path" fill="#2C3A45"/>
    <path d="M18.0014 22C18.8482 22 19.5347 21.3195 19.5347 20.48C19.5347 19.6405 18.8482 18.96 18.0014 18.96C17.1545 18.96 16.468 19.6405 16.468 20.48C16.468 21.3195 17.1545 22 18.0014 22Z" class="header-svg-path" fill="#2C3A45"/>
    <path d="M22.8654 7.75L23.8235 8.03621C23.914 7.73352 23.856 7.40592 23.6673 7.15259C23.4786 6.89926 23.1813 6.75 22.8654 6.75V7.75ZM20.278 16.4121L21.2362 16.6983L20.278 16.4121ZM18.7702 17.5V18.5V17.5ZM9.37455 17.5L9.37455 18.5H9.37455V17.5ZM7.86671 16.4121L6.90854 16.6983L7.86671 16.4121ZM4.32169 4.54396L5.27985 4.25775V4.25775L4.32169 4.54396ZM3.56776 4L3.56776 3H3.56776V4ZM1.91895 3C1.36666 3 0.918945 3.44772 0.918945 4C0.918945 4.55228 1.36666 5 1.91895 5V3ZM5.27934 8.75H22.8654V6.75H5.27934V8.75ZM21.9072 7.46379L19.3198 16.1259L21.2362 16.6983L23.8235 8.03621L21.9072 7.46379ZM19.3198 16.1259C19.291 16.2223 19.2276 16.3157 19.1294 16.3866L20.2996 18.0085C20.7455 17.6867 21.0777 17.2287 21.2362 16.6983L19.3198 16.1259ZM19.1294 16.3866C19.0305 16.4579 18.9044 16.5 18.7702 16.5V18.5C19.3174 18.5 19.8543 18.3297 20.2996 18.0085L19.1294 16.3866ZM18.7702 16.5H9.37455V18.5H18.7702V16.5ZM9.37455 16.5C9.24026 16.5 9.11417 16.4579 9.01531 16.3866L7.84509 18.0085C8.29036 18.3297 8.82728 18.5 9.37455 18.5L9.37455 16.5ZM9.01531 16.3866C8.91711 16.3157 8.85367 16.2223 8.82488 16.1259L6.90854 16.6983C7.06699 17.2287 7.39917 17.6867 7.84509 18.0085L9.01531 16.3866ZM8.82488 16.1259L5.27985 4.25775L3.36352 4.83017L6.90854 16.6983L8.82488 16.1259ZM5.27985 4.25775C5.16822 3.88402 4.93494 3.56387 4.62505 3.34028L3.45483 4.96219C3.417 4.9349 3.38153 4.89048 3.36352 4.83017L5.27985 4.25775ZM4.62505 3.34028C4.31581 3.11717 3.94465 3 3.56776 3L3.56776 5C3.53166 5 3.49201 4.98901 3.45483 4.96219L4.62505 3.34028ZM3.56776 3H1.91895V5H3.56776V3Z" class="header-svg-path" fill="#2C3A45"/>
    <circle cx="18" cy="6" r="5.5" fill="#6BE3ED" stroke="white"/>
</svg>