<svg class="pointer-events-none" width="8" height="12" viewBox="0 0 8 12" fill="none" xmlns="http://www.w3.org/2000/svg">
              <path d="M6.25594 11.9999C6.09589 12.0004 5.93775 11.9721 5.79314 11.9172C5.64853 11.8624 5.52113 11.7823 5.4203 11.6828L0.245789 6.54046C0.0882166 6.3871 0.0020752 6.19474 0.0020752 5.99622C0.0020752 5.7977 0.0882166 5.60534 0.245789 5.45199L5.60243 0.309616C5.78427 0.134589 6.04558 0.0245216 6.32887 0.00362666C6.61216 -0.0172683 6.89422 0.052721 7.113 0.198197C7.33178 0.343674 7.46937 0.552721 7.49548 0.779351C7.5216 1.00598 7.43412 1.23163 7.25227 1.40665L2.46344 6.00051L7.09157 10.5944C7.22258 10.7202 7.30579 10.8734 7.33138 11.0358C7.35696 11.1983 7.32384 11.3632 7.23593 11.5111C7.14802 11.6589 7.00901 11.7835 6.83533 11.8702C6.66166 11.9568 6.4606 12.0019 6.25594 11.9999Z" fill="#868684"/>
              <path d="M6.25594 11.9999C6.09589 12.0004 5.93775 11.9721 5.79314 11.9172C5.64853 11.8624 5.52113 11.7823 5.4203 11.6828L0.245789 6.54046C0.0882166 6.3871 0.0020752 6.19474 0.0020752 5.99622C0.0020752 5.7977 0.0882166 5.60534 0.245789 5.45199L5.60243 0.309616C5.78427 0.134589 6.04558 0.0245216 6.32887 0.00362666C6.61216 -0.0172683 6.89422 0.052721 7.113 0.198197C7.33178 0.343674 7.46937 0.552721 7.49548 0.779351C7.5216 1.00598 7.43412 1.23163 7.25227 1.40665L2.46344 6.00051L7.09157 10.5944C7.22258 10.7202 7.30579 10.8734 7.33138 11.0358C7.35696 11.1983 7.32384 11.3632 7.23593 11.5111C7.14802 11.6589 7.00901 11.7835 6.83533 11.8702C6.66166 11.9568 6.4606 12.0019 6.25594 11.9999Z" fill="#241F21"/>
            </svg>