<svg viewBox="0 0 39 39" fill="none" xmlns="http://www.w3.org/2000/svg" class="w-6 h-6">
    <path d="M19.5 0C8.73043 0 0 8.73043 0 19.5C0 30.2696 8.73043 39 19.5 39C30.2696 39 39 30.2696 39 19.5C39 8.73043 30.2696 0 19.5 0Z" fill="white"/>
    <path d="M28 18.3796C26.3294 18.3834 24.6997 17.9007 23.3413 16.9998V23.2829C23.3408 24.4466 22.9569 25.5824 22.2409 26.5385C21.5248 27.4946 20.5108 28.2254 19.3344 28.6332C18.1579 29.0409 16.8752 29.1062 15.6576 28.8203C14.44 28.5344 13.3457 27.9109 12.5209 27.0332C11.6962 26.1555 11.1803 25.0655 11.0422 23.9088C10.9042 22.7522 11.1506 21.584 11.7485 20.5606C12.3464 19.5372 13.2673 18.7073 14.388 18.1819C15.5087 17.6564 16.7759 17.4605 18.02 17.6203V20.7805C17.4507 20.6146 16.8394 20.6196 16.2733 20.7947C15.7072 20.9699 15.2153 21.3064 14.8679 21.756C14.5206 22.2056 14.3354 22.7455 14.3389 23.2984C14.3424 23.8513 14.5344 24.3891 14.8875 24.8349C15.2406 25.2807 15.7367 25.6118 16.305 25.7808C16.8732 25.9498 17.4846 25.9481 18.0518 25.776C18.619 25.6039 19.113 25.2701 19.4632 24.8224C19.8134 24.3747 20.002 23.8358 20.002 23.2829V11H23.3413C23.339 11.2613 23.3626 11.5222 23.4119 11.7794V11.7794C23.5279 12.3537 23.7692 12.9 24.1209 13.3849C24.4726 13.8698 24.9275 14.2832 25.4575 14.5996C26.2117 15.0616 27.0959 15.3079 28 15.3077V18.3796Z" fill="#241F21"/>
</svg>